<svg xmlns="http://www.w3.org/2000/svg" style="display: none;">
  <!-- Your existing SVG icon code wrapped inside a symbol -->
  <symbol id="icon-close" viewBox="0 0 122.88 66.91">
    <path
      fill="currentColor"
      d="M11.68,1.95C8.95-0.7,4.6-0.64,1.95,2.08c-2.65,2.72-2.59,7.08,0.13,9.73l54.79,53.13l4.8-4.93l-4.8,4.95 c2.74,2.65,7.1,2.58,9.75-0.15c0.08-0.08,0.15-0.16,0.22-0.24l53.95-52.76c2.73-2.65,2.79-7.01,0.14-9.73 c-2.65-2.72-7.01-2.79-9.73-0.13L61.65,50.41L11.68,1.95L11.68,1.95z"
    />
  </symbol>

  <symbol id="icon-new" viewBox="0 0 24 24">
    <path
      stroke-linecap="round"
      stroke-linejoin="round"
      stroke-width="1.5"
      stroke="currentColor"
      fill="none"
      d="M8.625 9.75a.375.375 0 1 1-.75 0 .375.375 0 0 1 .75 0Zm0 0H8.25m4.125 0a.375.375 0 1 1-.75 0 .375.375 0 0 1 .75 0Zm0 0H12m4.125 0a.375.375 0 1 1-.75 0 .375.375 0 0 1 .75 0Zm0 0h-.375m-13.5 3.01c0 1.6 1.123 2.994 2.707 3.227 1.087.16 2.185.283 3.293.369V21l4.184-4.183a1.14 1.14 0 0 1 .778-.332 48.294 48.294 0 0 0 5.83-.498c1.585-.233 2.708-1.626 2.708-3.228V6.741c0-1.602-1.123-2.995-2.707-3.228A48.394 48.394 0 0 0 12 3c-2.392 0-4.744.175-7.043.513C3.373 3.746 2.25 5.14 2.25 6.741v6.018Z"
    />
  </symbol>

  <symbol id="icon-mode" viewBox="0 0 24 24">
    <path
      stroke-linecap="round"
      stroke-linejoin="round"
      stroke-width="1.5"
      stroke="currentColor"
      fill="none"
      d="M12 3v2.25m6.364.386-1.591 1.591M21 12h-2.25m-.386 6.364-1.591-1.591M12 18.75V21m-4.773-4.227-1.591 1.591M5.25 12H3m4.227-4.773L5.636 5.636M15.75 12a3.75 3.75 0 1 1-7.5 0 3.75 3.75 0 0 1 7.5 0Z" />
  </symbol>

  <symbol id="icon-love" viewBox="0 0 24 24">
    <path
      stroke-linecap="round"
      stroke-linejoin="round"
      stroke-width="1.5"
      stroke="currentColor"
      fill="none"
      d="M21 8.25c0-2.485-2.099-4.5-4.688-4.5-1.935 0-3.597 1.126-4.312 2.733-.715-1.607-2.377-2.733-4.313-2.733C5.1 3.75 3 5.765 3 8.25c0 7.22 9 12 9 12s9-4.78 9-12Z" />
  </symbol>
  
  <symbol id="icon-search" viewBox="0 0 24 24">
    <path
      stroke-linecap="round"
      stroke-linejoin="round"
      stroke-width="1.5"
      stroke="currentColor"
      fill="none"
      d="m21 21-5.197-5.197m0 0A7.5 7.5 0 1 0 5.196 5.196a7.5 7.5 0 0 0 10.607 10.607Z" />
  </symbol>

  <symbol id="icon-book" viewBox="0 0 24 24">
    <path 
      fill="none" 
      stroke-width="1.5" 
      stroke="currentColor" 
      stroke-linecap="round" 
      stroke-linejoin="round" 
      d="M12 6.042A8.967 8.967 0 0 0 6 3.75c-1.052 0-2.062.18-3 .512v14.25A8.987 8.987 0 0 1 6 18c2.305 0 4.408.867 6 2.292m0-14.25a8.966 8.966 0 0 1 6-2.292c1.052 0 2.062.18 3 .512v14.25A8.987 8.987 0 0 0 18 18a8.967 8.967 0 0 0-6 2.292m0-14.25v14.25" />
  </symbol>

<symbol id="icon-dots" viewBox="0 0 24 24">
  <path 
    fill="none" 
    stroke-width="1.5" 
    stroke="currentColor" 
    stroke-linecap="round" 
    stroke-linejoin="round" 
    d="M6 6a2 2 0 1 1 0-0.01M10 4h4a1 1 0 0 1 1 1v2a1 1 0 0 1-1 1h-4a1 1 0 0 1-1-1V5a1 1 0 0 1 1-1ZM6 14a2 2 0 1 1 0-0.01M10 12h4a1 1 0 0 1 1 1v2a1 1 0 0 1-1 1h-4a1 1 0 0 1-1-1v-2a1 1 0 0 1 1-1Z"
  />

<symbol id="icon-file-manager" viewBox="0 0 24 24">
  <path 
    fill="none" 
    stroke-width="1.5" 
    stroke="currentColor" 
    stroke-linecap="round" 
    stroke-linejoin="round" 
    d="M3.75 5.25A1.5 1.5 0 0 1 5.25 3.75H9l1.5 1.5h8.25a1.5 1.5 0 0 1 1.5 1.5v11.25a1.5 1.5 0 0 1-1.5 1.5H5.25a1.5 1.5 0 0 1-1.5-1.5V5.25z" 
  />
</symbol>


<symbol id="icon-fly" viewBox="0 0 24 24">
  <path 
    fill="none" 
    stroke-width="1.5" 
    stroke="currentColor" 
    stroke-linecap="round" 
    stroke-linejoin="round" 
    d="M3 12l17.5-7.5c1-.5 1.8.3 1.5 1.3L18 21c-.2.7-1 .9-1.5.5L11 15l-4 4c-.6.6-1 .3-.8-.5L7.5 13 3 12z" 
  />
</symbol>



<symbol id="icon-user" viewBox="0 0 24 24">
  <path 
  fill="none" 
  stroke="currentColor"
  stroke-linecap="round"
  stroke-linejoin="round"
  d="M15 19.128a9.38 9.38 0 0 0 2.625.372 9.337 9.337 0 0 0 4.121-.952 4.125 4.125 0 0 0-7.533-2.493M15 19.128v-.003c0-1.113-.285-2.16-.786-3.07M15 19.128v.106A12.318 12.318 0 0 1 8.624 21c-2.331 0-4.512-.645-6.374-1.766l-.001-.109a6.375 6.375 0 0 1 11.964-3.07M12 6.375a3.375 3.375 0 1 1-6.75 0 3.375 3.375 0 0 1 6.75 0Zm8.25 2.25a2.625 2.625 0 1 1-5.25 0 2.625 2.625 0 0 1 5.25 0Z" />
</symbol>


<symbol id="icon-video" viewBox="0 0 24 24">

  <path 
  stroke-linecap="round" 
  stroke-linejoin="round" 
  fill="none" 
  stroke-width="1.5" 
  stroke="currentColor" 


  d="M3.375 19.5h17.25m-17.25 0a1.125 1.125 0 0 1-1.125-1.125M3.375 19.5h1.5C5.496 19.5 6 18.996 6 18.375m-3.75 0V5.625m0 12.75v-1.5c0-.621.504-1.125 1.125-1.125m18.375 2.625V5.625m0 12.75c0 .621-.504 1.125-1.125 1.125m1.125-1.125v-1.5c0-.621-.504-1.125-1.125-1.125m0 3.75h-1.5A1.125 1.125 0 0 1 18 18.375M20.625 4.5H3.375m17.25 0c.621 0 1.125.504 1.125 1.125M20.625 4.5h-1.5C18.504 4.5 18 5.004 18 5.625m3.75 0v1.5c0 .621-.504 1.125-1.125 1.125M3.375 4.5c-.621 0-1.125.504-1.125 1.125M3.375 4.5h1.5C5.496 4.5 6 5.004 6 5.625m-3.75 0v1.5c0 .621.504 1.125 1.125 1.125m0 0h1.5m-1.5 0c-.621 0-1.125.504-1.125 1.125v1.5c0 .621.504 1.125 1.125 1.125m1.5-3.75C5.496 8.25 6 7.746 6 7.125v-1.5M4.875 8.25C5.496 8.25 6 8.754 6 9.375v1.5m0-5.25v5.25m0-5.25C6 5.004 6.504 4.5 7.125 4.5h9.75c.621 0 1.125.504 1.125 1.125m1.125 2.625h1.5m-1.5 0A1.125 1.125 0 0 1 18 7.125v-1.5m1.125 2.625c-.621 0-1.125.504-1.125 1.125v1.5m2.625-2.625c.621 0 1.125.504 1.125 1.125v1.5c0 .621-.504 1.125-1.125 1.125M18 5.625v5.25M7.125 12h9.75m-9.75 0A1.125 1.125 0 0 1 6 10.875M7.125 12C6.504 12 6 12.504 6 13.125m0-2.25C6 11.496 5.496 12 4.875 12M18 10.875c0 .621-.504 1.125-1.125 1.125M18 10.875c0 .621.504 1.125 1.125 1.125m-2.25 0c.621 0 1.125.504 1.125 1.125m-12 5.25v-5.25m0 5.25c0 .621.504 1.125 1.125 1.125h9.75c.621 0 1.125-.504 1.125-1.125m-12 0v-1.5c0-.621-.504-1.125-1.125-1.125M18 18.375v-5.25m0 5.25v-1.5c0-.621.504-1.125 1.125-1.125M18 13.125v1.5c0 .621.504 1.125 1.125 1.125M18 13.125c0-.621.504-1.125 1.125-1.125M6 13.125v1.5c0 .621-.504 1.125-1.125 1.125M6 13.125C6 12.504 5.496 12 4.875 12m-1.5 0h1.5m-1.5 0c-.621 0-1.125.504-1.125 1.125v1.5c0 .621.504 1.125 1.125 1.125M19.125 12h1.5m0 0c.621 0 1.125.504 1.125 1.125v1.5c0 .621-.504 1.125-1.125 1.125m-17.25 0h1.5m14.25 0h1.5" />


</symbol>


<symbol id="icon-hamb" viewBox="0 0 24 24">

  <path 
  stroke-linecap="round" 
  stroke-linejoin="round" 
  fill="none" 
  stroke-width="1.5" 
  stroke="currentColor" 
  d="M3.75 6.75h16.5M3.75 12h16.5m-16.5 5.25h16.5" />

</symbol>







</svg>
